<svg xmlns="http://www.w3.org/2000/svg">

<symbol id="star-black" viewBox="0 0 26 26" fill="none">
<path d="M6.91471 25.6211C6.28429 26.1123 5.64017 26.1259 4.98235 25.662C4.32452 25.1982 4.10525 24.5843 4.32452 23.8203L6.66802 16.2485L0.706493 12.0329C0.0486695 11.5691 -0.149774 10.9551 0.111163 10.1911C0.371003 9.42715 0.898359 9.04516 1.69323 9.04516H9.05264L11.4372 1.18692C11.5743 0.804923 11.787 0.511331 12.0753 0.306144C12.3626 0.102048 12.6707 0 12.9996 0C13.3285 0 13.6366 0.102048 13.9238 0.306144C14.2122 0.511331 14.4249 0.804923 14.5619 1.18692L16.9465 9.04516H24.3059C25.1008 9.04516 25.6287 9.42715 25.8896 10.1911C26.1495 10.9551 25.9505 11.5691 25.2927 12.0329L19.3311 16.2485L21.6746 23.8203C21.8939 24.5843 21.6746 25.1982 21.0168 25.662C20.359 26.1259 19.7149 26.1123 19.0844 25.6211L12.9996 20.9962L6.91471 25.6211Z" fill="#070707"/>
</symbol>


<symbol id="star-grey" viewBox="0 0 26 26" fill="none">
<path d="M6.91471 25.6211C6.28429 26.1123 5.64017 26.1259 4.98235 25.662C4.32452 25.1982 4.10525 24.5843 4.32452 23.8203L6.66802 16.2485L0.706493 12.0329C0.0486696 11.5691 -0.149774 10.9551 0.111163 10.1911C0.371003 9.42715 0.898359 9.04516 1.69323 9.04516H9.05264L11.4372 1.18692C11.5743 0.804923 11.787 0.511331 12.0753 0.306144C12.3626 0.102048 12.6707 0 12.9996 0C13.3285 0 13.6366 0.102048 13.9238 0.306144C14.2122 0.511331 14.4249 0.804923 14.5619 1.18692L16.9465 9.04516H24.3059C25.1008 9.04516 25.6287 9.42715 25.8896 10.1911C26.1495 10.9551 25.9505 11.5691 25.2927 12.0329L19.3311 16.2485L21.6746 23.8203C21.8939 24.5843 21.6746 25.1982 21.0168 25.662C20.359 26.1259 19.7149 26.1123 19.0844 25.6211L12.9996 20.9962L6.91471 25.6211Z" fill="#e5e5e5"/>

</symbol>

<symbol id="linkeIdn" viewBox="0 0 41 41" fill="none">
<path d="M34.3906 0.25H6.10938C2.87848 0.25 0.25 2.87848 0.25 6.10938V34.3906C0.25 37.6215 2.87848 40.25 6.10938 40.25H34.3906C37.6215 40.25 40.25 37.6215 40.25 34.3906V6.10938C40.25 2.87848 37.6215 0.25 34.3906 0.25ZM37.9062 34.3906C37.9062 36.3291 36.3291 37.9062 34.3906 37.9062H6.10938C4.1709 37.9062 2.59375 36.3291 2.59375 34.3906V6.10938C2.59375 4.1709 4.1709 2.59375 6.10938 2.59375H34.3906C36.3291 2.59375 37.9062 4.1709 37.9062 6.10938V34.3906Z" fill="currentColor" stroke="currentColor" stroke-width="0.5"/>
<path d="M26.4915 15.4473C27.3814 15.473 28.2249 15.6721 28.9847 16.1465C29.9587 16.7547 30.5527 17.645 30.9007 18.7139C31.1719 19.5467 31.2611 20.4062 31.262 21.2773C31.2642 23.7876 31.2633 26.2983 31.263 28.8086C31.263 28.8529 31.2592 28.8972 31.2562 28.9482H26.9886V28.7676L26.9896 21.8418C26.9895 21.35 26.9522 20.8635 26.8275 20.3828C26.569 19.3883 25.8805 18.9183 25.1458 18.8164C24.4125 18.7148 23.6327 18.98 23.1878 19.4521C22.7426 19.9247 22.4501 20.4598 22.4378 21.1221C22.4351 21.2773 22.4261 21.4355 22.4261 21.5918C22.4252 23.9809 22.4251 26.3706 22.4251 28.7598V28.9473H18.1673V15.7617H22.4232V17.5293L22.4319 17.5332C22.4427 17.5378 22.4555 17.543 22.4671 17.5479L22.4778 17.5527L22.4847 17.543C22.515 17.5021 22.5471 17.4614 22.5775 17.4199C23.0064 16.8286 23.4985 16.3056 24.1517 15.9521C24.8813 15.557 25.6699 15.4237 26.4915 15.4473Z" fill="#070707" stroke="#070707" stroke-width="0.0306072"/>
<path d="M15.5162 15.7578V28.9551H11.2809V15.7578H15.5162Z" fill="currentColor" stroke="currentColor" stroke-width="0.0306072"/>
<path d="M13.5809 9.17969C14.2486 9.1788 14.8177 9.41372 15.2206 9.81543C15.6235 10.2173 15.8609 10.7868 15.8632 11.4561C15.8653 12.1178 15.6271 12.6821 15.2186 13.0811C14.81 13.48 14.2305 13.7145 13.5497 13.7148C12.2219 13.7157 11.276 12.7749 11.2733 11.4512C11.2709 10.1265 12.2301 9.1815 13.5809 9.17969Z" fill="currentColor" stroke="currentColor" stroke-width="0.0306072"/>
</symbol>

<symbol id="Instagram" viewBox="0 0 40 40" fill="none">
<path d="M28.3945 0.5C34.5121 0.500164 39.5 5.49576 39.5 11.6123V28.3857C39.5 34.5025 34.5119 39.4978 28.4043 39.498H11.6152C5.49628 39.498 0.50002 34.5109 0.5 28.4053V11.6221C0.5 5.50602 5.49708 0.509848 11.6152 0.509766H12.1152V0.5H28.3945ZM11.6152 2.58594C6.60772 2.58602 2.58751 6.60691 2.57715 11.6299V28.415C2.57724 33.4117 6.59971 37.4316 11.6152 37.4316H28.4043C33.402 37.4314 37.4229 33.4099 37.4229 28.3955V11.6221C37.4229 6.60725 33.4015 2.5861 28.3945 2.58594H11.6152ZM20.0098 9.7373C25.6568 9.73739 30.2793 14.3589 30.2793 20.0039C30.2793 25.6489 25.6567 30.2695 20.0098 30.2695C14.3627 30.2695 9.74027 25.649 9.74023 20.0039C9.74023 14.3588 14.3627 9.7373 20.0098 9.7373ZM20.0098 11.8135C15.4645 11.8135 11.8174 15.4596 11.8174 20.0039C11.8174 24.5481 15.4646 28.1943 20.0098 28.1943C24.5549 28.1943 28.2021 24.5481 28.2021 20.0039C28.2021 15.4597 24.5549 11.8136 20.0098 11.8135ZM32.3174 6.66211C32.8969 6.66215 33.3552 7.12023 33.3555 7.69922C33.3555 8.27844 32.8971 8.73726 32.3174 8.7373C31.7376 8.7373 31.2793 8.27846 31.2793 7.69922C31.2796 7.1202 31.7378 6.66211 32.3174 6.66211Z" fill="currentColor" stroke="currentColor"/>
</symbol>

<symbol id="Behance" viewBox="0 0 41 41" fill="none" >
<path d="M34.3906 0.25H6.10938C2.87848 0.25 0.25 2.87848 0.25 6.10938V34.3906C0.25 37.6215 2.87848 40.25 6.10938 40.25H34.3906C37.6215 40.25 40.25 37.6215 40.25 34.3906V6.10938C40.25 2.87848 37.6215 0.25 34.3906 0.25ZM37.9062 34.3906C37.9062 36.3291 36.3291 37.9062 34.3906 37.9062H6.10938C4.1709 37.9062 2.59375 36.3291 2.59375 34.3906V6.10938C2.59375 4.1709 4.1709 2.59375 6.10938 2.59375H34.3906C36.3291 2.59375 37.9062 4.1709 37.9062 6.10938V34.3906Z" fill="currentColor" stroke="currentColor" stroke-width="0.5"/>
<path d="M19.0781 16.7344C19.0781 14.1495 16.9755 12.0469 14.3906 12.0469H7.35938V28.4531H14.3906C16.9755 28.4531 19.0781 26.3505 19.0781 23.7656C19.0781 22.3667 18.4614 21.1097 17.486 20.25C18.4614 19.3903 19.0781 18.1333 19.0781 16.7344ZM16.7344 23.7656C16.7344 25.058 15.683 26.1094 14.3906 26.1094H9.70312V21.4219H14.3906C15.683 21.4219 16.7344 22.4732 16.7344 23.7656ZM9.70312 19.0781V14.3906H14.3906C15.683 14.3906 16.7344 15.442 16.7344 16.7344C16.7344 18.0268 15.683 19.0781 14.3906 19.0781H9.70312Z" fill="currentColor" stroke="currentColor" stroke-width="0.5"/>
<path d="M27.2813 16.7344C24.0504 16.7344 21.4219 19.3629 21.4219 22.5938C21.4219 25.8246 24.0504 28.4531 27.2813 28.4531C29.3665 28.4531 31.3111 27.331 32.356 25.5244L30.3272 24.3506C29.6998 25.4355 28.5325 26.1094 27.2813 26.1094C25.7532 26.1094 24.4501 25.1298 23.9664 23.7656H33.1406V22.5938C33.1406 19.3629 30.5121 16.7344 27.2813 16.7344ZM23.9664 21.4219C24.4501 20.0577 25.7532 19.0781 27.2813 19.0781C28.8093 19.0781 30.1124 20.0577 30.5961 21.4219H23.9664Z" fill="currentColor" stroke="currentColor" stroke-width="0.5"/>
<path d="M22.5938 12.0469H31.9688V14.3906H22.5938V12.0469Z" fill="currentColor" stroke="currentColor" stroke-width="0.5"/>
</symbol>

<svg id="Dribble" viewBox="0 0 40 40" fill="none">
<path d="M20 0.5C30.7431 0.5 39.5 9.2565 39.5 19.999C39.5 30.7416 30.7431 39.498 20 39.498C9.25689 39.498 0.5 30.7416 0.5 19.999C0.5 9.2565 9.25689 0.5 20 0.5ZM24.0654 25.0078C20.6113 25.9904 16.9955 28.5397 14.2539 31C12.9293 32.1785 11.8596 33.2974 11.001 34.2139L10.5732 34.6699L11.1113 34.9863C13.7128 36.5194 16.7327 37.4209 19.9902 37.4209C22.4351 37.4209 24.7419 36.9165 26.8486 36.0264L27.2021 35.877L27.1494 35.4971C26.654 31.9225 25.7803 28.5154 24.6748 25.3252L24.5195 24.8789L24.0654 25.0078ZM36.2568 24.3867C34.764 24.2219 32.8713 24.0558 30.4717 24.1436H30.4668C29.4333 24.1923 28.3327 24.2896 27.2139 24.4355L26.6133 24.5137L26.8047 25.0889C27.7494 27.9324 28.5304 30.9449 29.0352 34.0781L29.1602 34.8545L29.8105 34.4121C33.067 32.1951 35.5327 28.8979 36.6816 25.0254L36.8516 24.4521L36.2568 24.3867ZM20.1738 15.9883C12.2819 18.1804 5.32978 18.1138 3.16406 18.0283L2.68359 18.0098L2.64551 18.4893C2.60732 18.9762 2.56738 19.4765 2.56738 20.0088C2.56743 25.2466 4.88532 29.9197 8.53613 33.1152L8.9043 33.4375L9.23438 33.0762C10.15 32.0748 11.3779 30.7992 12.8711 29.4678L12.873 29.4658C15.6817 26.9344 19.2977 24.254 23.2383 23.084L23.7637 22.9277L23.5605 22.4189C22.6793 20.2111 21.7302 18.159 20.7529 16.2432L20.5674 15.8789L20.1738 15.9883ZM32.415 8.62109C30.7211 10.6424 27.7785 13.2692 23.1191 15.0518L22.6035 15.249L22.8516 15.7432C23.8553 17.741 24.8286 19.87 25.7158 22.1689L25.8604 22.543L26.2568 22.4834C29.6261 21.9804 32.7407 21.9801 35.0938 22.1602V22.1611C35.7877 22.2174 36.1841 22.2815 36.749 22.3594L37.2588 22.4297L37.3145 21.9189C37.3835 21.288 37.4229 20.6541 37.4229 19.999C37.4229 15.6422 35.8082 11.6719 33.1768 8.61523L32.793 8.16992L32.415 8.62109ZM12.6748 4.20898C8.08094 6.32769 4.59586 10.3773 3.21973 15.3271L3.0498 15.9414L3.68652 15.9609C6.21737 16.0388 12.2682 15.9221 18.9727 14.166L19.6016 14.001L19.2812 13.4355C16.6797 8.85171 14.4915 5.91767 13.2793 4.35645L13.0361 4.04297L12.6748 4.20898ZM20 2.57715C18.5507 2.57715 17.1454 2.77529 15.8145 3.10059L15.0732 3.28223L15.5342 3.88867C16.9565 5.75959 19.0004 8.58558 21.4473 13.0107L21.6533 13.3848L22.0557 13.2383C26.6823 11.5585 29.4559 8.98909 30.9746 7.12305L31.291 6.7334L30.9004 6.41797C27.9203 4.01233 24.1372 2.57715 20 2.57715Z" fill="currentColor" stroke="currentColor"/>
</svg>

</svg>


